<svg width="79" height="70" viewBox="0 0 79 70" fill="none" xmlns="http://www.w3.org/2000/svg">
<g clip-path="url(#clip0_30_1660)">
<path d="M25.7914 35.9575L14.0213 32.593C10.197 31.4682 9.2072 27.049 12.2396 24.6385C13.6241 23.5379 15.5454 23.163 17.3007 23.6509L29.0697 27.0184L47.9938 13.559C50.4151 11.8372 56.806 14.7629 53.9385 17.6439L41.1655 30.4761L53.2693 33.9377C57.7721 31.4263 59.2927 30.631 64.2491 32.0503L58.4266 40.3527L57.632 50.093C52.6744 48.677 51.9683 47.2465 49.9899 42.8798L37.8882 39.4172L39.7153 56.4265C40.1257 60.245 33.0037 59.3078 32.1874 56.6584L25.7914 35.9575Z" stroke="#324840" stroke-linecap="round" stroke-linejoin="round"/>
</g>
<defs>
<clipPath id="clip0_30_1660">
<rect width="53" height="57" fill="white" transform="matrix(-0.49308 -0.869984 0.908448 -0.417999 27 70)"/>
</clipPath>
</defs>
</svg>
