<svg width="201" height="201" viewBox="0 0 201 201" fill="none" xmlns="http://www.w3.org/2000/svg">
<path d="M75.3289 8.23397L62.9261 16.6644L44.1395 12.4492L25.5352 8.23397L20.6106 11.8994C17.8747 13.9154 15.5035 16.4812 15.1387 17.5808C14.774 18.6804 19.881 22.7124 26.6296 26.561L38.85 33.3421L34.655 36.8242C29.7303 40.8561 26.4472 41.0394 16.2331 37.374C9.8493 34.9915 7.47817 34.9915 4.19507 36.6409C1.82395 37.9238 0 39.9398 0 41.0394C0 44.8881 19.5162 60.2828 24.4409 60.2828C33.9254 60.2828 49.7937 52.2189 70.5867 37.0075C82.4423 28.3937 94.298 19.2302 97.2163 16.6644C103.418 10.6165 103.965 2.55258 98.1282 0.903147C90.4677 -1.11283 87.9142 -0.196477 75.3289 8.23397ZM94.8451 8.60051C94.8451 10.983 88.6437 16.1146 67.486 31.3261C47.0578 46.171 37.0261 51.8524 28.2711 53.6851C23.7113 54.6014 21.7049 53.8684 16.9627 49.2866C13.6796 46.171 10.9437 43.2387 10.9437 43.0554C10.9437 42.6889 15.1387 43.6052 20.0634 45.0714C29.3655 47.8204 29.3655 47.8204 38.3028 41.9558C43.4099 38.6569 47.4226 34.9915 47.4226 33.5253C47.4226 32.2424 42.4979 28.3937 36.4789 25.0949C18.969 15.3815 22.4345 13.9154 48.3345 19.9633L64.0205 23.6287L76.0585 15.3815C87.0022 7.68416 94.8451 4.9351 94.8451 8.60051Z" fill="#324840"/>
<path d="M135.884 25.2783C134.79 27.2943 135.519 27.8441 150.293 35.3582C163.061 41.5894 177.653 55.8845 184.766 69.08C208.112 111.965 190.785 165.114 146.463 186.373C133.878 192.238 130.412 193.154 114.909 193.704C100.682 194.254 95.3926 193.704 85.7257 190.405C49.2468 178.126 27.3595 147.886 27.3595 109.4C27.3595 95.1044 31.7369 77.1439 37.3912 68.3469C39.7623 64.4982 38.3031 59.0001 35.2024 60.8328C32.2841 62.6655 25.7179 77.3272 22.7996 88.69C13.4975 125.161 29.1834 165.114 61.6496 186.19C121.84 225.41 201.364 182.158 200.999 110.133C200.817 74.9447 182.395 44.1552 152.664 29.127C141.174 23.2623 137.708 22.5293 135.884 25.2783Z" fill="#324840"/>
<path d="M87.3663 45.4383C74.0515 50.7531 62.3783 60.0999 54.7177 71.8292C45.7804 85.208 43.0444 94.1883 43.0444 110.683C43.0444 127.177 47.6043 140.006 58.3656 153.385C68.0325 165.481 84.0832 174.644 100.863 177.76C128.587 182.708 159.777 166.214 172.727 139.273C181.664 121.129 180.387 92.1723 169.991 74.9448C164.154 65.598 151.934 54.2353 141.355 48.7371C131.688 43.7888 128.223 43.0557 113.084 42.5059C99.4043 41.9561 93.9325 42.6892 87.3663 45.4383ZM129.682 51.1197C142.267 54.9683 155.217 63.7653 148.833 63.9486C146.827 63.9486 142.632 66.1478 139.166 68.7136C134.424 72.379 131.871 73.1121 127.493 72.1958C119.285 70.3631 114.543 74.5783 106.883 90.7061C101.228 102.619 100.499 105.551 102.14 108.85C103.599 111.599 103.599 114.165 102.14 118.013C99.4043 125.161 101.228 131.942 108.706 141.289C111.99 145.687 114.908 150.086 114.908 151.369C114.908 152.652 116.549 154.484 118.738 155.584C124.392 158.7 130.959 155.034 140.078 143.488C151.387 129.01 150.657 125.344 135.154 114.898C131.688 112.515 128.587 109.583 128.04 108.3C126.946 104.635 132.783 105.734 140.261 110.683C148.286 116.181 159.595 117.28 166.708 113.432C169.261 112.149 171.997 111.416 172.545 112.149C174.186 113.615 169.809 131.392 165.978 139.09C160.871 149.169 148.468 160.899 137.342 166.03C127.128 170.795 107.977 173.544 99.9515 171.528C94.8445 170.062 91.1966 162.731 91.1966 153.201C91.1966 143.122 83.3536 135.424 72.9571 135.424C63.1078 135.424 61.8311 131.942 68.0325 120.029C71.498 113.432 75.5107 109.216 81.1649 105.734C92.2909 98.9533 93.7501 92.7221 86.0895 85.7578C82.9888 83.0087 78.7938 77.3274 76.605 73.2954C74.5987 69.0802 72.0452 65.7813 71.1332 65.7813C64.0198 65.7813 78.2466 55.5182 91.7438 50.9364C104.147 46.5379 115.455 46.5379 129.682 51.1197ZM71.3156 77.1441C73.5043 81.3593 77.1522 86.3076 79.5233 88.3236C85.1776 92.7221 84.9952 96.2042 78.9762 99.5031C68.2149 105.001 58.3656 119.663 58.3656 129.926C58.3656 137.44 64.0198 142.938 70.7684 141.655C78.6114 140.006 83.3536 145.321 84.448 156.867C85.1776 162.182 85.1776 166.58 84.6304 166.58C84.0832 166.58 80.0705 164.198 75.693 161.082C65.1142 153.751 57.0888 143.122 52.5289 130.476C45.9627 111.599 49.9754 85.9411 61.6487 72.5623C65.6614 67.9806 66.9381 68.5304 71.3156 77.1441ZM162.695 75.6779C165.249 78.6103 173.274 99.8696 173.274 103.535C173.274 105.184 159.777 109.766 155.035 109.766C152.299 109.766 147.009 107.567 142.997 105.001C134.242 98.9533 124.575 98.5867 120.015 104.268C116.732 108.3 116.732 108.483 123.48 114.531C127.311 117.83 132.6 121.496 135.336 122.595C138.072 123.878 140.625 125.894 141.173 127.544C142.267 130.109 133.695 142.755 127.675 147.703C124.392 150.452 120.38 150.819 120.38 148.253C120.38 147.337 117.461 142.755 113.996 137.99C107.247 129.193 106.335 124.428 109.618 115.997C110.895 112.332 110.895 109.766 109.436 107.017C107.612 103.718 108.342 101.153 113.631 91.2559L120.015 79.5266H128.405C133.147 79.5266 137.525 78.6103 138.254 77.5106C143.909 69.2634 156.676 68.1638 162.695 75.6779Z" fill="#324840"/>
</svg>
