<svg width="1400" height="492" viewBox="0 0 1400 492" fill="none" xmlns="http://www.w3.org/2000/svg">
<path d="M1 187.401L10.0806 182.507C51.8865 159.974 102.189 159.832 144.122 182.129L193 208.119L318.472 284.767C360.607 310.506 412.484 314.631 458.157 295.874L522.67 269.38C538.23 262.99 555.296 261.193 571.846 264.203L699.408 287.402C719.021 290.969 739.252 288.593 757.505 280.578L992.081 177.577C1037.8 157.503 1089.25 154.717 1136.87 169.736L1282.58 215.694C1311.2 224.721 1342.3 221.313 1368.29 206.299L1401 187.401V496.112H1V187.401Z" fill="#324840"/>
<mask id="mask0_148_484" style="mask-type:alpha" maskUnits="userSpaceOnUse" x="-117" y="0" width="662" height="568">
<path d="M399.447 445.176C805.501 507.765 246.358 568 119.969 568C-6.42069 568 -108.88 472.768 -108.88 355.294C-108.88 237.82 -154.767 0 -28.3777 0C37.0236 0 -28.3777 13.6471 119.969 247.059C264.265 265.412 244.519 404.706 399.447 445.176Z" fill="#D9D9D9"/>
</mask>
<g mask="url(#mask0_148_484)">
<ellipse cx="264.245" cy="208.941" rx="514.909" ry="430.118" fill="#4C685B" fill-opacity="0.27"/>
</g>
<mask id="mask1_148_484" style="mask-type:alpha" maskUnits="userSpaceOnUse" x="848" y="16" width="693" height="537">
<path d="M1000.37 436.65C575.3 495.669 1160.63 552.469 1292.93 552.469C1425.24 552.469 1532.5 462.668 1532.5 351.894C1532.5 241.119 1580.54 16.8625 1448.23 16.8625C1379.76 16.8625 1448.23 29.7313 1292.93 249.831C1141.88 267.138 1162.55 398.488 1000.37 436.65Z" fill="#D9D9D9"/>
</mask>
<g mask="url(#mask1_148_484)">
<ellipse cx="539.021" cy="405.587" rx="539.021" ry="405.587" transform="matrix(-1 0 0 1 1680.92 -191.7)" fill="#4C685B" fill-opacity="0.27"/>
</g>
</svg>
