<svg width="18" height="17" viewBox="0 0 18 17" fill="none" xmlns="http://www.w3.org/2000/svg">
<g clip-path="url(#clip0_243_376)">
<path d="M12.5294 1.41174H5.47057C3.52133 1.41174 1.94116 2.99191 1.94116 4.94115V12C1.94116 13.9492 3.52133 15.5294 5.47057 15.5294H12.5294C14.4786 15.5294 16.0588 13.9492 16.0588 12V4.94115C16.0588 2.99191 14.4786 1.41174 12.5294 1.41174Z" stroke="#F1F8EC" stroke-opacity="0.5" stroke-linecap="round" stroke-linejoin="round"/>
<path d="M11.8236 8.02582C11.9107 8.61329 11.8103 9.21327 11.5368 9.74042C11.2633 10.2676 10.8305 10.6951 10.3 10.9621C9.76951 11.2291 9.16834 11.322 8.58199 11.2277C7.99564 11.1333 7.45397 10.8565 7.03403 10.4365C6.61408 10.0166 6.33725 9.47491 6.24289 8.88856C6.14854 8.30221 6.24148 7.70104 6.50849 7.17056C6.7755 6.64007 7.20298 6.20729 7.73013 5.93376C8.25728 5.66023 8.85726 5.55988 9.44473 5.647C10.044 5.73586 10.5987 6.01509 11.0271 6.44345C11.4555 6.87181 11.7347 7.42658 11.8236 8.02582Z" stroke="#F1F8EC" stroke-opacity="0.5" stroke-linecap="round" stroke-linejoin="round"/>
<path d="M12.8824 4.58826H12.8895" stroke="#F1F8EC" stroke-opacity="0.5" stroke-width="2" stroke-linecap="round" stroke-linejoin="round"/>
</g>
<defs>
<clipPath id="clip0_243_376">
<rect width="16.9412" height="16.9412" fill="white" transform="translate(0.529419)"/>
</clipPath>
</defs>
</svg>
