<svg width="16" height="16" viewBox="0 0 16 16" fill="none" xmlns="http://www.w3.org/2000/svg">
<g clip-path="url(#clip0_30_1667)">
<path d="M1.21536 8.00006C1.21536 13.2229 6.86924 16.4871 11.3923 13.8757C13.4915 12.6637 14.7846 10.424 14.7846 8.00006C14.7846 2.77724 9.13074 -0.487006 4.60768 2.12443C2.50849 3.33637 1.21536 5.57612 1.21536 8.00006Z" stroke="#F1F8EC" stroke-opacity="0.5" stroke-linecap="round" stroke-linejoin="round"/>
<path d="M10.2616 6.49231V6.30387C10.2616 5.57524 9.67087 4.98462 8.94231 4.98462H7.24612C6.41343 4.98456 5.73843 5.65962 5.73843 6.49231V9.50768C5.73843 10.3404 6.4135 11.0154 7.24612 11.0154H8.94231C9.67087 11.0154 10.2616 10.4247 10.2616 9.69612V9.50768" stroke="#F1F8EC" stroke-opacity="0.5" stroke-linecap="round" stroke-linejoin="round"/>
</g>
<defs>
<clipPath id="clip0_30_1667">
<rect width="16" height="16" fill="white"/>
</clipPath>
</defs>
</svg>
