<svg width="17" height="17" viewBox="0 0 17 17" fill="none" xmlns="http://www.w3.org/2000/svg">
<g clip-path="url(#clip0_243_374)">
<path d="M16.2941 2.17653C15.6182 2.65334 14.8697 3.01802 14.0777 3.25653C13.6525 2.76772 13.0875 2.42126 12.4591 2.26401C11.8306 2.10676 11.1691 2.14632 10.5638 2.37732C9.95859 2.60833 9.4389 3.01964 9.07505 3.55563C8.7112 4.09161 8.52073 4.72642 8.52942 5.37418V6.08006C7.28892 6.11223 6.05973 5.83711 4.9513 5.2792C3.84288 4.72129 2.88964 3.89792 2.17647 2.88241C2.17647 2.88241 -0.647055 9.23536 5.70589 12.0589C4.25214 13.0457 2.52035 13.5405 0.764709 13.4706C7.11765 17.0001 14.8824 13.4706 14.8824 5.353C14.8817 5.15638 14.8628 4.96025 14.8259 4.76712C15.5463 4.05664 16.0547 3.15962 16.2941 2.17653Z" stroke="#F1F8EC" stroke-opacity="0.5" stroke-linecap="round" stroke-linejoin="round"/>
</g>
<defs>
<clipPath id="clip0_243_374">
<rect width="16.9412" height="16.9412" fill="white" transform="translate(0.0588379 0.0588379)"/>
</clipPath>
</defs>
</svg>
